<svg width="123" height="42" viewBox="0 0 123 42" fill="none" xmlns="http://www.w3.org/2000/svg">
<rect width="123" height="42" rx="8" fill="#2E3A59"/>
<path d="M21.7546 27L19.2906 22.648H18.2346V27H15.9946V15.832H20.1866C21.0506 15.832 21.7866 15.9867 22.3946 16.296C23.0026 16.5947 23.456 17.0053 23.7546 17.528C24.064 18.04 24.2186 18.616 24.2186 19.256C24.2186 19.992 24.0053 20.6587 23.5786 21.256C23.152 21.8427 22.5173 22.248 21.6746 22.472L24.3466 27H21.7546ZM18.2346 20.968H20.1066C20.7146 20.968 21.168 20.824 21.4666 20.536C21.7653 20.2373 21.9146 19.8267 21.9146 19.304C21.9146 18.792 21.7653 18.3973 21.4666 18.12C21.168 17.832 20.7146 17.688 20.1066 17.688H18.2346V20.968ZM34.4846 22.376C34.4846 22.696 34.4633 22.984 34.4206 23.24H27.9406C27.994 23.88 28.218 24.3813 28.6126 24.744C29.0073 25.1067 29.4926 25.288 30.0686 25.288C30.9006 25.288 31.4926 24.9307 31.8446 24.216H34.2606C34.0046 25.0693 33.514 25.7733 32.7886 26.328C32.0633 26.872 31.1726 27.144 30.1166 27.144C29.2633 27.144 28.4953 26.9573 27.8126 26.584C27.1406 26.2 26.6126 25.6613 26.2286 24.968C25.8553 24.2747 25.6686 23.4747 25.6686 22.568C25.6686 21.6507 25.8553 20.8453 26.2286 20.152C26.602 19.4587 27.1246 18.9253 27.7966 18.552C28.4686 18.1787 29.242 17.992 30.1166 17.992C30.9593 17.992 31.7113 18.1733 32.3726 18.536C33.0446 18.8987 33.562 19.416 33.9246 20.088C34.298 20.7493 34.4846 21.512 34.4846 22.376ZM32.1646 21.736C32.154 21.16 31.946 20.7013 31.5406 20.36C31.1353 20.008 30.6393 19.832 30.0526 19.832C29.498 19.832 29.0286 20.0027 28.6446 20.344C28.2713 20.6747 28.042 21.1387 27.9566 21.736H32.1646ZM35.5436 22.568C35.5436 21.6507 35.7303 20.8507 36.1036 20.168C36.477 19.4747 36.9943 18.9413 37.6556 18.568C38.317 18.184 39.0743 17.992 39.9276 17.992C41.0263 17.992 41.933 18.2693 42.6476 18.824C43.373 19.368 43.8583 20.136 44.1036 21.128H41.6876C41.5596 20.744 41.341 20.4453 41.0316 20.232C40.733 20.008 40.3596 19.896 39.9116 19.896C39.2716 19.896 38.765 20.1307 38.3916 20.6C38.0183 21.0587 37.8316 21.7147 37.8316 22.568C37.8316 23.4107 38.0183 24.0667 38.3916 24.536C38.765 24.9947 39.2716 25.224 39.9116 25.224C40.8183 25.224 41.4103 24.8187 41.6876 24.008H44.1036C43.8583 24.968 43.373 25.7307 42.6476 26.296C41.9223 26.8613 41.0156 27.144 39.9276 27.144C39.0743 27.144 38.317 26.9573 37.6556 26.584C36.9943 26.2 36.477 25.6667 36.1036 24.984C35.7303 24.2907 35.5436 23.4853 35.5436 22.568ZM50.7366 18.008C51.4086 18.008 52.006 18.1573 52.5286 18.456C53.0513 18.744 53.4566 19.176 53.7446 19.752C54.0433 20.3173 54.1926 21 54.1926 21.8V27H51.9526V22.104C51.9526 21.4 51.7766 20.8613 51.4246 20.488C51.0726 20.104 50.5926 19.912 49.9846 19.912C49.366 19.912 48.8753 20.104 48.5126 20.488C48.1606 20.8613 47.9846 21.4 47.9846 22.104V27H45.7446V15.16H47.9846V19.24C48.2726 18.856 48.6566 18.5573 49.1366 18.344C49.6166 18.12 50.15 18.008 50.7366 18.008ZM64.5628 22.376C64.5628 22.696 64.5414 22.984 64.4988 23.24H58.0188C58.0721 23.88 58.2961 24.3813 58.6908 24.744C59.0854 25.1067 59.5708 25.288 60.1468 25.288C60.9788 25.288 61.5708 24.9307 61.9228 24.216H64.3388C64.0828 25.0693 63.5921 25.7733 62.8668 26.328C62.1414 26.872 61.2508 27.144 60.1948 27.144C59.3414 27.144 58.5734 26.9573 57.8908 26.584C57.2188 26.2 56.6908 25.6613 56.3068 24.968C55.9334 24.2747 55.7467 23.4747 55.7467 22.568C55.7467 21.6507 55.9334 20.8453 56.3068 20.152C56.6801 19.4587 57.2028 18.9253 57.8748 18.552C58.5468 18.1787 59.3201 17.992 60.1948 17.992C61.0374 17.992 61.7894 18.1733 62.4508 18.536C63.1228 18.8987 63.6401 19.416 64.0028 20.088C64.3761 20.7493 64.5628 21.512 64.5628 22.376ZM62.2428 21.736C62.2321 21.16 62.0241 20.7013 61.6188 20.36C61.2134 20.008 60.7174 19.832 60.1308 19.832C59.5761 19.832 59.1068 20.0027 58.7228 20.344C58.3494 20.6747 58.1201 21.1387 58.0348 21.736H62.2428ZM68.4378 19.512C68.7258 19.0427 69.0991 18.6747 69.5578 18.408C70.0271 18.1413 70.5604 18.008 71.1578 18.008V20.36H70.5658C69.8618 20.36 69.3284 20.5253 68.9658 20.856C68.6138 21.1867 68.4378 21.7627 68.4378 22.584V27H66.1978V18.136H68.4378V19.512ZM72.0905 22.568C72.0905 21.6507 72.2772 20.8507 72.6505 20.168C73.0238 19.4747 73.5412 18.9413 74.2025 18.568C74.8638 18.184 75.6212 17.992 76.4745 17.992C77.5732 17.992 78.4798 18.2693 79.1945 18.824C79.9198 19.368 80.4052 20.136 80.6505 21.128H78.2345C78.1065 20.744 77.8878 20.4453 77.5785 20.232C77.2798 20.008 76.9065 19.896 76.4585 19.896C75.8185 19.896 75.3118 20.1307 74.9385 20.6C74.5652 21.0587 74.3785 21.7147 74.3785 22.568C74.3785 23.4107 74.5652 24.0667 74.9385 24.536C75.3118 24.9947 75.8185 25.224 76.4585 25.224C77.3652 25.224 77.9572 24.8187 78.2345 24.008H80.6505C80.4052 24.968 79.9198 25.7307 79.1945 26.296C78.4692 26.8613 77.5625 27.144 76.4745 27.144C75.6212 27.144 74.8638 26.9573 74.2025 26.584C73.5412 26.2 73.0238 25.6667 72.6505 24.984C72.2772 24.2907 72.0905 23.4853 72.0905 22.568ZM87.2835 18.008C87.9555 18.008 88.5528 18.1573 89.0755 18.456C89.5982 18.744 90.0035 19.176 90.2915 19.752C90.5902 20.3173 90.7395 21 90.7395 21.8V27H88.4995V22.104C88.4995 21.4 88.3235 20.8613 87.9715 20.488C87.6195 20.104 87.1395 19.912 86.5315 19.912C85.9128 19.912 85.4222 20.104 85.0595 20.488C84.7075 20.8613 84.5315 21.4 84.5315 22.104V27H82.2915V15.16H84.5315V19.24C84.8195 18.856 85.2035 18.5573 85.6835 18.344C86.1635 18.12 86.6968 18.008 87.2835 18.008ZM101.11 22.376C101.11 22.696 101.088 22.984 101.046 23.24H94.5656C94.619 23.88 94.843 24.3813 95.2376 24.744C95.6323 25.1067 96.1176 25.288 96.6936 25.288C97.5256 25.288 98.1176 24.9307 98.4696 24.216H100.886C100.63 25.0693 100.139 25.7733 99.4136 26.328C98.6883 26.872 97.7976 27.144 96.7416 27.144C95.8883 27.144 95.1203 26.9573 94.4376 26.584C93.7656 26.2 93.2376 25.6613 92.8536 24.968C92.4803 24.2747 92.2936 23.4747 92.2936 22.568C92.2936 21.6507 92.4803 20.8453 92.8536 20.152C93.227 19.4587 93.7496 18.9253 94.4216 18.552C95.0936 18.1787 95.867 17.992 96.7416 17.992C97.5843 17.992 98.3363 18.1733 98.9976 18.536C99.6696 18.8987 100.187 19.416 100.55 20.088C100.923 20.7493 101.11 21.512 101.11 22.376ZM98.7896 21.736C98.779 21.16 98.571 20.7013 98.1656 20.36C97.7603 20.008 97.2643 19.832 96.6776 19.832C96.123 19.832 95.6536 20.0027 95.2696 20.344C94.8963 20.6747 94.667 21.1387 94.5816 21.736H98.7896ZM104.985 19.512C105.273 19.0427 105.646 18.6747 106.105 18.408C106.574 18.1413 107.107 18.008 107.705 18.008V20.36H107.113C106.409 20.36 105.875 20.5253 105.513 20.856C105.161 21.1867 104.985 21.7627 104.985 22.584V27H102.745V18.136H104.985V19.512Z" fill="white"/>
</svg>
