<svg width="42" height="42" viewBox="0 0 42 42" fill="none" xmlns="http://www.w3.org/2000/svg">
<rect width="42" height="42" rx="8" fill="#2E3A59"/>
<path d="M11.8335 14.3333L16.8335 14.3333" stroke="white" stroke-width="1.5" stroke-linecap="round" stroke-linejoin="round"/>
<path d="M24.3332 14.3333L30.1665 14.3333" stroke="white" stroke-width="1.5" stroke-linecap="round" stroke-linejoin="round"/>
<path d="M11.8335 21L19.3335 21" stroke="white" stroke-width="1.5" stroke-linecap="round" stroke-linejoin="round"/>
<path d="M26.8332 21L30.1665 21" stroke="white" stroke-width="1.5" stroke-linecap="round" stroke-linejoin="round"/>
<path d="M11.8332 27.6667H15.1665" stroke="white" stroke-width="1.5" stroke-linecap="round" stroke-linejoin="round"/>
<path d="M22.6665 27.6667L30.1665 27.6667" stroke="white" stroke-width="1.5" stroke-linecap="round" stroke-linejoin="round"/>
<path d="M21.0835 14.3333C21.0835 15.2998 20.3 16.0833 19.3335 16.0833C18.367 16.0833 17.5835 15.2998 17.5835 14.3333C17.5835 13.3668 18.367 12.5833 19.3335 12.5833C20.3 12.5833 21.0835 13.3668 21.0835 14.3333Z" stroke="white" stroke-width="1.5"/>
<circle cx="24.3335" cy="21" r="1.75" stroke="white" stroke-width="1.5"/>
<path d="M19.4165 27.6667C19.4165 28.6332 18.633 29.4167 17.6665 29.4167C16.7 29.4167 15.9165 28.6332 15.9165 27.6667C15.9165 26.7002 16.7 25.9167 17.6665 25.9167C18.633 25.9167 19.4165 26.7002 19.4165 27.6667Z" stroke="white" stroke-width="1.5"/>
</svg>
